# Blender v2.93.1 OBJ File: ''
# www.blender.org
mtllib test_sphere.mtl
o Icosphere
v 0.000000 0.000000 -1.054394
v 0.448458 -0.325820 -0.896925
v -0.171292 -0.527192 -0.896925
v 0.762967 -0.554322 -0.471546
v 0.896918 0.000000 -0.554333
v -0.554326 0.000000 -0.896922
v -0.171292 0.527192 -0.896925
v 0.448458 0.325820 -0.896924
v 1.002790 -0.325821 -0.000000
v -0.291422 -0.896919 -0.471546
v 0.277167 -0.853017 -0.554335
v 0.000000 -1.054394 -0.000000
v -0.943078 0.000000 -0.471542
v -0.725623 -0.527194 -0.554333
v -1.002790 -0.325821 -0.000000
v -0.291422 0.896919 -0.471546
v -0.725623 0.527194 -0.554333
v -0.619758 0.853022 0.000000
v 0.762967 0.554322 -0.471545
v 0.277167 0.853017 -0.554334
v 0.619758 0.853022 0.000000
v 0.619758 -0.853022 -0.000000
v -0.619758 -0.853022 -0.000000
v -1.002790 0.325821 0.000000
v 0.000000 1.054394 0.000000
v 1.002790 0.325821 0.000000
v 0.291422 -0.896919 0.471546
v 0.725623 -0.527194 0.554333
v 0.171292 -0.527192 0.896925
v -0.762967 -0.554322 0.471545
v -0.277167 -0.853017 0.554334
v -0.448458 -0.325820 0.896924
v -0.762967 0.554322 0.471546
v -0.896918 0.000000 0.554332
v -0.448458 0.325820 0.896925
v 0.291422 0.896919 0.471546
v -0.277167 0.853017 0.554335
v 0.171292 0.527192 0.896925
v 0.943078 0.000000 0.471542
v 0.725623 0.527193 0.554333
v 0.554326 -0.000000 0.896922
v 0.000000 -0.000000 1.054394
vt 0.542955 0.018116
vt 0.270228 0.179697
vt 0.133865 0.179697
vt 0.270228 0.341278
vt 0.361137 0.341278
vt 0.952046 0.179697
vt 0.815682 0.179697
vt 0.633864 0.179697
vt 0.452046 0.179697
vt 0.315683 0.502858
vt 0.088410 0.341278
vt 0.179319 0.341278
vt 0.133865 0.502858
vt 0.815682 0.341278
vt 0.906591 0.341278
vt 0.861137 0.502858
vt 0.633864 0.341278
vt 0.724773 0.341278
vt 0.679319 0.502858
vt 0.452046 0.341278
vt 0.542955 0.341278
vt 0.497501 0.502858
vt 0.224773 0.502858
vt 0.042955 0.502858
vt 0.770228 0.502858
vt 0.588410 0.502858
vt 0.406592 0.502858
vt 0.179319 0.664438
vt 0.270228 0.664438
vt 0.179319 0.826019
vt -0.002500 0.664438
vt 0.088409 0.664438
vt 0.042955 0.826019
vt 0.724773 0.664438
vt 0.815682 0.664438
vt 0.724773 0.826019
vt 0.542955 0.664438
vt 0.633864 0.664438
vt 0.542955 0.826019
vt 0.361137 0.664438
vt 0.452046 0.664438
vt 0.361137 0.826019
vt 0.497501 0.987600
vt 0.861137 0.826019
vt 0.906591 0.664438
vt 0.952046 0.502858
vt 0.997500 0.341278
vn 0.1024 -0.3151 -0.9435
vn 0.7002 -0.2680 -0.6617
vn -0.2680 -0.1947 -0.9435
vn -0.2680 0.1947 -0.9435
vn 0.1024 0.3151 -0.9435
vn 0.9050 -0.2680 -0.3304
vn 0.0247 -0.9435 -0.3304
vn -0.8897 -0.3151 -0.3304
vn -0.5746 0.7488 -0.3304
vn 0.5346 0.7779 -0.3304
vn 0.8026 -0.5831 -0.1256
vn -0.3066 -0.9435 -0.1256
vn -0.9921 -0.0000 -0.1256
vn -0.3066 0.9435 -0.1256
vn 0.8026 0.5831 -0.1256
vn 0.4089 -0.6284 0.6617
vn -0.4713 -0.5831 0.6617
vn -0.7002 0.2680 0.6617
vn 0.0385 0.7488 0.6617
vn 0.7240 0.1947 0.6617
vn 0.2680 0.1947 0.9435
vn 0.4911 0.3568 0.7947
vn 0.4089 0.6284 0.6617
vn -0.1024 0.3151 0.9435
vn -0.1876 0.5773 0.7947
vn -0.4713 0.5831 0.6617
vn -0.3313 -0.0000 0.9435
vn -0.6071 -0.0000 0.7947
vn -0.7002 -0.2680 0.6617
vn -0.1024 -0.3151 0.9435
vn -0.1876 -0.5773 0.7947
vn 0.0385 -0.7488 0.6617
vn 0.2680 -0.1947 0.9435
vn 0.4911 -0.3568 0.7947
vn 0.7240 -0.1947 0.6617
vn 0.8897 0.3151 0.3304
vn 0.7947 0.5773 0.1876
vn 0.5746 0.7488 0.3304
vn -0.0247 0.9435 0.3304
vn -0.3035 0.9342 0.1876
vn -0.5346 0.7779 0.3304
vn -0.9050 0.2680 0.3304
vn -0.9822 0.0000 0.1876
vn -0.9050 -0.2680 0.3304
vn -0.5346 -0.7779 0.3304
vn -0.3035 -0.9342 0.1876
vn -0.0247 -0.9435 0.3304
vn 0.5746 -0.7488 0.3304
vn 0.7947 -0.5773 0.1876
vn 0.8897 -0.3151 0.3304
vn 0.3066 0.9435 0.1256
vn 0.3035 0.9342 -0.1876
vn 0.0247 0.9435 -0.3304
vn -0.8026 0.5831 0.1256
vn -0.7947 0.5773 -0.1876
vn -0.8897 0.3151 -0.3304
vn -0.8026 -0.5831 0.1256
vn -0.7947 -0.5773 -0.1876
vn -0.5746 -0.7488 -0.3304
vn 0.3066 -0.9435 0.1256
vn 0.3035 -0.9342 -0.1876
vn 0.5346 -0.7779 -0.3304
vn 0.9921 0.0000 0.1256
vn 0.9822 0.0000 -0.1876
vn 0.9050 0.2680 -0.3304
vn 0.4713 0.5831 -0.6617
vn 0.1876 0.5773 -0.7947
vn -0.0385 0.7488 -0.6617
vn -0.4089 0.6284 -0.6617
vn -0.4911 0.3568 -0.7947
vn -0.7240 0.1947 -0.6617
vn -0.7240 -0.1947 -0.6617
vn -0.4911 -0.3568 -0.7947
vn -0.4089 -0.6284 -0.6617
vn 0.7002 0.2680 -0.6617
vn 0.6071 0.0000 -0.7947
vn 0.3313 0.0000 -0.9435
vn -0.0385 -0.7488 -0.6617
vn 0.1876 -0.5773 -0.7947
vn 0.4713 -0.5831 -0.6617
usemtl Material.002
s 1
f 1/1/1 2/2/1 3/3/1
f 4/4/2 2/2/2 5/5/2
f 1/1/3 3/6/3 6/7/3
f 1/1/4 6/7/4 7/8/4
f 1/1/5 7/8/5 8/9/5
f 4/4/6 5/5/6 9/10/6
f 10/11/7 11/12/7 12/13/7
f 13/14/8 14/15/8 15/16/8
f 16/17/9 17/18/9 18/19/9
f 19/20/10 20/21/10 21/22/10
f 4/4/11 9/10/11 22/23/11
f 10/11/12 12/13/12 23/24/12
f 13/14/13 15/16/13 24/25/13
f 16/17/14 18/19/14 25/26/14
f 19/20/15 21/22/15 26/27/15
f 27/28/16 28/29/16 29/30/16
f 30/31/17 31/32/17 32/33/17
f 33/34/18 34/35/18 35/36/18
f 36/37/19 37/38/19 38/39/19
f 39/40/20 40/41/20 41/42/20
f 41/42/21 38/39/21 42/43/21
f 41/42/22 40/41/22 38/39/22
f 40/41/23 36/37/23 38/39/23
f 38/39/24 35/36/24 42/43/24
f 38/39/25 37/38/25 35/36/25
f 37/38/26 33/34/26 35/36/26
f 35/36/27 32/44/27 42/43/27
f 35/36/28 34/35/28 32/44/28
f 34/35/29 30/45/29 32/44/29
f 32/33/30 29/30/30 42/43/30
f 32/33/31 31/32/31 29/30/31
f 31/32/32 27/28/32 29/30/32
f 29/30/33 41/42/33 42/43/33
f 29/30/34 28/29/34 41/42/34
f 28/29/35 39/40/35 41/42/35
f 26/27/36 40/41/36 39/40/36
f 26/27/37 21/22/37 40/41/37
f 21/22/38 36/37/38 40/41/38
f 25/26/39 37/38/39 36/37/39
f 25/26/40 18/19/40 37/38/40
f 18/19/41 33/34/41 37/38/41
f 24/25/42 34/35/42 33/34/42
f 24/25/43 15/16/43 34/35/43
f 15/16/44 30/45/44 34/35/44
f 23/24/45 31/32/45 30/31/45
f 23/24/46 12/13/46 31/32/46
f 12/13/47 27/28/47 31/32/47
f 22/23/48 28/29/48 27/28/48
f 22/23/49 9/10/49 28/29/49
f 9/10/50 39/40/50 28/29/50
f 21/22/51 25/26/51 36/37/51
f 21/22/52 20/21/52 25/26/52
f 20/21/53 16/17/53 25/26/53
f 18/19/54 24/25/54 33/34/54
f 18/19/55 17/18/55 24/25/55
f 17/18/56 13/14/56 24/25/56
f 15/16/57 23/46/57 30/45/57
f 15/16/58 14/15/58 23/46/58
f 14/15/59 10/47/59 23/46/59
f 12/13/60 22/23/60 27/28/60
f 12/13/61 11/12/61 22/23/61
f 11/12/62 4/4/62 22/23/62
f 9/10/63 26/27/63 39/40/63
f 9/10/64 5/5/64 26/27/64
f 5/5/65 19/20/65 26/27/65
f 8/9/66 20/21/66 19/20/66
f 8/9/67 7/8/67 20/21/67
f 7/8/68 16/17/68 20/21/68
f 7/8/69 17/18/69 16/17/69
f 7/8/70 6/7/70 17/18/70
f 6/7/71 13/14/71 17/18/71
f 6/7/72 14/15/72 13/14/72
f 6/7/73 3/6/73 14/15/73
f 3/6/74 10/47/74 14/15/74
f 5/5/75 8/9/75 19/20/75
f 5/5/76 2/2/76 8/9/76
f 2/2/77 1/1/77 8/9/77
f 3/3/78 11/12/78 10/11/78
f 3/3/79 2/2/79 11/12/79
f 2/2/80 4/4/80 11/12/80
